HIERARCHY
ROOT Crab_Bone_002
{
	OFFSET 0.000001 1.809483 1.070690
	CHANNELS 6 Xposition Yposition Zposition Xrotation Yrotation Zrotation
	JOINT Crab_Bone_003
	{
		OFFSET -0.001212 -3.444643 1.330027
		CHANNELS 3 Xrotation Yrotation Zrotation
		JOINT Crab_Bone_004
		{
			OFFSET -0.000258 -0.734549 0.283620
			CHANNELS 3 Xrotation Yrotation Zrotation
			JOINT Crab_Bone_005
			{
				OFFSET -2.212137 2.996329 -3.161722
				CHANNELS 3 Xrotation Yrotation Zrotation
				JOINT Crab_Bone_006
				{
					OFFSET -2.363831 -0.999774 0.737129
					CHANNELS 3 Xrotation Yrotation Zrotation
					JOINT Crab_Bone_007
					{
						OFFSET 0.679981 -1.781121 0.391521
						CHANNELS 3 Xrotation Yrotation Zrotation
						JOINT Crab_Bone_012
						{
							OFFSET 0.167619 -0.705615 0.156840
							CHANNELS 3 Xrotation Yrotation Zrotation
							JOINT Crab_Bone_013
							{
								OFFSET 1.027711 -2.075420 1.136799
								CHANNELS 3 Xrotation Yrotation Zrotation
								End Site
								{
									OFFSET 0.059793 0.725938 2.474936
								}
							}
						}
						JOINT Crab_Bone_014
						{
							OFFSET 0.169967 -0.716239 0.177733
							CHANNELS 3 Xrotation Yrotation Zrotation
							JOINT Crab_Bone_015
							{
								OFFSET 1.177098 -2.213120 -0.871869
								CHANNELS 3 Xrotation Yrotation Zrotation
								End Site
								{
									OFFSET -0.140401 -0.651721 2.568885
								}
							}
						}
					}
				}
			}
		}
		JOINT Crab_Bone_008
		{
			OFFSET -0.000258 -0.734549 0.283620
			CHANNELS 3 Xrotation Yrotation Zrotation
			JOINT Crab_Bone_009
			{
				OFFSET 2.536297 2.452007 -2.009468
				CHANNELS 3 Xrotation Yrotation Zrotation
				JOINT Crab_Bone_010
				{
					OFFSET 1.536116 -0.822250 0.380907
					CHANNELS 3 Xrotation Yrotation Zrotation
					JOINT Crab_Bone_011
					{
						OFFSET -0.216882 -1.545392 0.401011
						CHANNELS 3 Xrotation Yrotation Zrotation
						JOINT Crab_Bone_016
						{
							OFFSET -0.105369 -0.640233 0.098495
							CHANNELS 3 Xrotation Yrotation Zrotation
							JOINT Crab_Bone_017
							{
								OFFSET -0.877063 -1.746863 0.622338
								CHANNELS 3 Xrotation Yrotation Zrotation
								End Site
								{
									OFFSET 0.058713 0.817211 1.880637
								}
							}
						}
						JOINT Crab_Bone_018
						{
							OFFSET -0.117790 -0.696131 0.111856
							CHANNELS 3 Xrotation Yrotation Zrotation
							JOINT Crab_Bone_019
							{
								OFFSET -0.774615 -2.143309 -0.762011
								CHANNELS 3 Xrotation Yrotation Zrotation
								End Site
								{
									OFFSET 0.098373 -1.177132 2.092640
								}
							}
						}
					}
				}
			}
		}
	}
	JOINT Crab_Bone_020
	{
		OFFSET -1.116273 -0.154590 -0.374501
		CHANNELS 3 Xrotation Yrotation Zrotation
		JOINT Crab_Bone_021
		{
			OFFSET -3.118662 1.611093 1.513430
			CHANNELS 3 Xrotation Yrotation Zrotation
			JOINT Crab_Bone_022
			{
				OFFSET -1.588351 2.658805 -1.742729
				CHANNELS 3 Xrotation Yrotation Zrotation
				End Site
				{
					OFFSET -3.122031 -1.424496 0.923547
				}
			}
		}
	}
	JOINT Crab_Bone_023
	{
		OFFSET -1.485358 -0.679445 -0.384127
		CHANNELS 3 Xrotation Yrotation Zrotation
		JOINT Crab_Bone_024
		{
			OFFSET -4.354937 1.041430 2.735311
			CHANNELS 3 Xrotation Yrotation Zrotation
			JOINT Crab_Bone_025
			{
				OFFSET -3.146346 1.140532 -2.766851
				CHANNELS 3 Xrotation Yrotation Zrotation
				End Site
				{
					OFFSET -1.594861 -4.033993 0.197688
				}
			}
		}
	}
	JOINT Crab_Bone_026
	{
		OFFSET -1.641655 -1.332070 -0.435368
		CHANNELS 3 Xrotation Yrotation Zrotation
		JOINT Crab_Bone_027
		{
			OFFSET -4.159019 0.186248 1.795406
			CHANNELS 3 Xrotation Yrotation Zrotation
			JOINT Crab_Bone_028
			{
				OFFSET -3.475782 0.547989 -1.456533
				CHANNELS 3 Xrotation Yrotation Zrotation
				End Site
				{
					OFFSET -0.634418 -3.753667 0.101702
				}
			}
		}
	}
	JOINT Crab_Bone_029
	{
		OFFSET -1.691511 -1.877323 -0.077977
		CHANNELS 3 Xrotation Yrotation Zrotation
		JOINT Crab_Bone_030
		{
			OFFSET -4.567539 -1.546834 1.375860
			CHANNELS 3 Xrotation Yrotation Zrotation
			JOINT Crab_Bone_031
			{
				OFFSET -2.285981 -1.723023 -1.671352
				CHANNELS 3 Xrotation Yrotation Zrotation
				End Site
				{
					OFFSET 2.513823 -2.117836 -0.428249
				}
			}
		}
	}
	JOINT Crab_Bone_020_Bis
	{
		OFFSET 1.052121 -0.155333 -0.407179
		CHANNELS 3 Xrotation Yrotation Zrotation
		JOINT Crab_Bone_021_Bis
		{
			OFFSET 3.269777 1.689566 1.700762
			CHANNELS 3 Xrotation Yrotation Zrotation
			JOINT Crab_Bone_022_Bis
			{
				OFFSET 1.433824 3.291166 -1.667421
				CHANNELS 3 Xrotation Yrotation Zrotation
				End Site
				{
					OFFSET -3.624812 1.364690 -0.816260
				}
			}
		}
	}
	JOINT Crab_Bone_023_Bis
	{
		OFFSET 1.420852 -0.680440 -0.618396
		CHANNELS 3 Xrotation Yrotation Zrotation
		JOINT Crab_Bone_024_Bis
		{
			OFFSET 3.158329 0.755220 2.314403
			CHANNELS 3 Xrotation Yrotation Zrotation
			JOINT Crab_Bone_025_Bis
			{
				OFFSET 3.724785 1.320794 -2.253904
				CHANNELS 3 Xrotation Yrotation Zrotation
				End Site
				{
					OFFSET -1.615193 4.246540 -0.238007
				}
			}
		}
	}
	JOINT Crab_Bone_026_Bis
	{
		OFFSET 1.576704 -1.333172 -0.624875
		CHANNELS 3 Xrotation Yrotation Zrotation
		JOINT Crab_Bone_027_Bis
		{
			OFFSET 3.858073 0.173228 2.214125
			CHANNELS 3 Xrotation Yrotation Zrotation
			JOINT Crab_Bone_028_Bis
			{
				OFFSET 3.076779 0.421557 -1.941671
				CHANNELS 3 Xrotation Yrotation Zrotation
				End Site
				{
					OFFSET -0.558715 3.617706 -0.120044
				}
			}
		}
	}
	JOINT Crab_Bone_029_Bis
	{
		OFFSET 1.626128 -2.007151 -0.390477
		CHANNELS 3 Xrotation Yrotation Zrotation
		JOINT Crab_Bone_030_Bis
		{
			OFFSET 3.013092 -0.711103 1.404963
			CHANNELS 3 Xrotation Yrotation Zrotation
			JOINT Crab_Bone_031_Bis
			{
				OFFSET 2.645858 -2.135076 -1.922209
				CHANNELS 3 Xrotation Yrotation Zrotation
				End Site
				{
					OFFSET 2.656470 2.760786 0.758435
				}
			}
		}
	}
}
MOTION
Frames: 9
Frame Time: 0.033333
0.000000 1.809483 1.070688 -0.000005 -0.004738 0.000936 -0.000003 -0.000000 -0.000000 0.000913 0.003606 -0.001646 -0.000144 0.001392 0.001429 -0.000003 0.000004 -0.000006 0.000001 0.000002 -0.000004 4.945114 2.468208 -0.070490 0.000007 0.000003 0.000008 -7.092768 -3.775538 -0.201591 0.000001 0.000000 0.000007 -0.602588 2.116296 -0.528634 0.165028 1.004782 1.446332 0.000011 -0.000003 0.000004 0.000003 -0.000002 -0.000002 3.084197 -1.514094 0.118997 0.000001 0.000001 0.000001 -2.678696 0.941352 0.086062 -0.000006 0.000002 0.000010 0.002776 0.003270 -0.001200 0.001122 0.001285 0.000933 0.000006 0.000001 0.000000 0.020550 -0.000306 0.000577 0.000417 0.001443 0.000114 -0.000002 -0.000006 0.000005 -0.019242 0.006554 -0.000981 0.000390 0.003762 0.000504 0.000005 0.000014 0.000001 -0.002550 0.005327 -0.001496 -0.000261 0.000589 -0.000246 -0.000006 0.000001 -0.000008 -0.008481 -0.003059 -0.001673 -0.001170 0.001099 0.001170 0.000000 -0.000003 -0.000001 -0.001317 0.004407 -0.001126 -0.000777 0.002568 0.000201 -0.000005 0.000006 -0.000010 -0.020104 0.003136 -0.001717 -0.000314 0.003512 0.000277 -0.000000 0.000014 0.000004 -0.015748 0.013017 -0.001053 0.000795 0.001748 -0.000834 -0.000000 0.000003 0.000009 
0.000000 1.809483 1.070688 0.044198 0.001369 0.019587 -0.000003 0.000000 -0.000000 -0.055238 -0.191801 0.105817 0.003000 -0.028719 -0.029305 -0.007407 0.084855 -0.080824 0.000003 0.000002 -0.000002 4.945115 2.468209 -0.070490 0.000002 0.000003 0.000006 -7.092768 -3.775539 -0.201589 -0.000001 0.000002 0.000004 -0.595862 2.032802 -0.575307 0.171324 1.046501 1.506208 0.000016 -0.000002 0.000001 0.000003 -0.000002 -0.000002 3.084201 -1.514094 0.118997 0.000003 0.000001 0.000001 -2.678696 0.941354 0.086057 -0.000000 0.000002 0.000010 -0.020013 -0.022842 -0.021448 0.002884 0.003300 0.002418 0.000002 -0.000001 -0.000005 0.017055 -0.016951 -0.016799 0.000416 0.001438 0.000113 -0.000002 -0.000004 0.000001 -0.001423 -0.006957 -0.024779 0.000390 0.003769 0.000505 0.000004 0.000012 0.000002 0.005156 0.037834 -0.023583 -0.000262 0.000587 -0.000243 -0.000012 0.000006 -0.000004 -0.018675 0.008288 -0.031706 -0.014600 0.013688 0.014449 -0.000000 -0.000003 -0.000003 0.028504 0.002309 -0.030385 -0.000777 0.002568 0.000202 -0.000008 0.000008 -0.000010 -0.017102 -0.024273 -0.033242 -0.000314 0.003512 0.000276 -0.000001 0.000016 0.000005 -0.019754 -0.041236 -0.031604 0.000792 0.001747 -0.000834 -0.000001 0.000005 0.000006 
0.000000 1.809483 1.070688 0.083950 0.001416 0.019724 0.000000 0.000000 -0.000000 -0.110038 -0.396284 0.202592 0.002540 -0.024171 -0.024664 -0.015036 0.154771 -0.175476 0.000001 0.000002 -0.000000 4.945115 2.468207 -0.070491 0.000002 0.000003 0.000005 -7.092770 -3.775538 -0.201591 0.000000 0.000000 0.000007 -0.590524 1.938723 -0.635643 0.181981 1.117910 1.608652 0.000019 -0.000002 0.000002 0.000005 -0.000003 -0.000003 3.084202 -1.514095 0.118997 -0.000003 0.000004 0.000008 -2.678692 0.941354 0.086057 -0.000002 0.000003 0.000006 -0.033810 -0.038851 -0.017052 -0.002201 -0.002547 -0.001857 0.000004 -0.000000 0.000001 0.015858 -0.019149 -0.010044 0.000415 0.001442 0.000114 -0.000003 -0.000004 0.000004 -0.000434 0.000927 -0.022054 0.000390 0.003771 0.000505 0.000005 0.000012 0.000001 -0.010870 0.070705 -0.021313 -0.000260 0.000590 -0.000243 -0.000009 0.000009 -0.000014 -0.048546 0.010851 -0.037032 -0.020329 0.019066 0.020141 0.000000 -0.000003 -0.000001 0.001794 -0.002800 -0.035848 -0.000777 0.002568 0.000204 -0.000007 0.000007 -0.000011 -0.016156 -0.033936 -0.038564 -0.000314 0.003514 0.000275 -0.000000 0.000009 0.000004 -0.051102 -0.063128 -0.036007 0.000793 0.001749 -0.000833 0.000003 0.000003 0.000007 
0.000000 1.809483 1.070689 0.125008 0.001419 0.019733 -0.000001 0.000000 -0.000000 -0.160761 -0.589243 0.290213 0.001588 -0.015041 -0.015357 -0.022823 0.210467 -0.283071 0.000001 0.000003 0.000001 4.945115 2.468209 -0.070490 0.000003 0.000002 0.000005 -7.092770 -3.775537 -0.201594 0.000001 0.000002 0.000008 -0.568514 1.847187 -0.704645 0.191352 1.181397 1.699716 0.000017 -0.000001 0.000005 0.000003 -0.000002 -0.000003 3.084197 -1.514094 0.118997 0.000003 0.000005 0.000012 -2.678696 0.941355 0.086056 0.000003 0.000003 0.000009 -0.048005 -0.055305 -0.012257 -0.007577 -0.008706 -0.006371 0.000003 -0.000000 -0.000001 0.014589 -0.021314 -0.002858 0.000419 0.001447 0.000110 -0.000000 -0.000008 0.000001 0.000470 0.009270 -0.019046 0.000389 0.003769 0.000505 0.000004 0.000012 0.000003 -0.028080 0.104472 -0.018821 -0.000263 0.000588 -0.000246 -0.000007 0.000006 -0.000009 -0.065630 0.027513 -0.041668 -0.026210 0.024566 0.025969 0.000001 -0.000003 0.000001 0.000585 -0.000017 -0.040904 -0.000776 0.002565 0.000204 -0.000007 0.000006 -0.000009 -0.015195 -0.043741 -0.043842 -0.000314 0.003512 0.000275 -0.000000 0.000014 0.000006 -0.065766 -0.093852 -0.040525 0.000798 0.001750 -0.000832 -0.000003 0.000002 0.000006 
0.000000 1.809483 1.070688 0.161930 0.001412 0.019736 -0.000001 0.000000 -0.000000 -0.208620 -0.775245 0.370905 0.000361 -0.003384 -0.003433 -0.030700 0.252707 -0.402659 -0.000000 0.000002 -0.000000 4.945110 2.468209 -0.070492 0.000001 0.000004 0.000008 -7.092767 -3.775537 -0.201592 0.000001 0.000002 0.000006 -0.583448 1.752720 -0.768015 0.199799 1.239173 1.782565 0.000013 -0.000001 0.000003 0.000002 -0.000003 -0.000003 3.084198 -1.514094 0.118998 0.000001 0.000004 0.000008 -2.678696 0.941354 0.086057 0.000003 0.000002 0.000008 -0.061298 -0.069676 -0.007952 -0.012334 -0.014167 -0.010358 0.000008 0.000001 -0.000003 0.013470 -0.023210 0.003600 0.000416 0.001443 0.000114 -0.000001 -0.000009 0.000002 0.001312 0.016802 -0.016352 0.000390 0.003768 0.000504 0.000004 0.000009 0.000000 -0.059093 0.127261 -0.017648 -0.000261 0.000589 -0.000241 -0.000011 0.000007 -0.000009 -0.080791 0.042698 -0.045824 -0.031495 0.029529 0.031178 -0.000002 -0.000002 -0.000003 -0.000141 0.002640 -0.045465 -0.000776 0.002565 0.000203 -0.000005 0.000005 -0.000009 -0.014324 -0.052568 -0.048587 -0.000314 0.003514 0.000275 -0.000000 0.000013 0.000004 -0.078623 -0.121586 -0.044574 0.000797 0.001751 -0.000832 -0.000002 0.000002 0.000007 
0.000000 1.809483 1.070689 0.198680 0.001418 0.019727 0.000000 0.000000 -0.000000 -0.252997 -0.951437 0.443557 -0.001250 0.011968 0.012204 -0.038619 0.282195 -0.533357 0.000002 0.000002 -0.000002 4.945112 2.468208 -0.070490 -0.000002 0.000001 0.000003 -7.092770 -3.775539 -0.201589 -0.000000 0.000003 0.000002 -0.582582 1.662358 -0.839415 0.207160 1.290044 1.855465 0.000015 -0.000002 0.000002 0.000003 -0.000002 -0.000003 3.084204 -1.514096 0.118995 -0.000001 0.000002 0.000007 -2.678693 0.941352 0.086062 0.000000 0.000002 0.000008 -0.087270 -0.072937 -0.003561 -0.017111 -0.019641 -0.014366 0.000006 0.000001 -0.000006 0.012362 -0.025078 0.010033 0.000417 0.001436 0.000114 -0.000000 -0.000004 0.000006 0.002104 0.024264 -0.013666 0.000390 0.003768 0.000505 0.000004 0.000010 0.000001 -0.052442 0.168240 -0.013873 -0.000260 0.000589 -0.000246 -0.000005 0.000004 -0.000004 -0.095863 0.057779 -0.049997 -0.036763 0.034455 0.036435 -0.000000 -0.000003 -0.000003 -0.000841 0.005237 -0.050006 -0.000775 0.002565 0.000205 -0.000007 0.000008 -0.000010 -0.013466 -0.061387 -0.053301 -0.000314 0.003517 0.000275 -0.000001 0.000018 0.000005 -0.091472 -0.149206 -0.048599 0.000797 0.001749 -0.000830 -0.000000 0.000002 0.000009 
0.000000 1.809483 1.070688 0.232405 0.001411 0.019722 0.000000 0.000000 -0.000000 -0.294512 -1.120362 0.509432 -0.003132 0.029864 0.030511 -0.046561 0.299686 -0.674188 0.000003 0.000002 -0.000004 4.945113 2.468211 -0.070489 0.000003 0.000002 0.000005 -7.092769 -3.775537 -0.201589 0.000001 0.000001 0.000004 -0.582681 1.575444 -0.914543 0.213680 1.335484 1.920572 0.000012 -0.000002 0.000004 0.000003 -0.000002 -0.000002 3.084203 -1.514095 0.118995 -0.000000 0.000003 0.000010 -2.678699 0.941353 0.086059 0.000001 0.000001 0.000007 -0.085966 -0.097658 0.000284 -0.021532 -0.024687 -0.018072 0.000004 0.000001 -0.000003 0.011320 -0.026843 0.015938 0.000416 0.001442 0.000114 -0.000002 -0.000009 -0.000000 0.002817 0.031096 -0.011204 0.000390 0.003764 0.000504 0.000004 0.000009 0.000001 -0.087955 0.185455 -0.013371 -0.000263 0.000588 -0.000245 -0.000008 0.000006 -0.000009 -0.109728 0.071658 -0.053805 -0.041609 0.038994 0.041207 -0.000000 -0.000003 -0.000001 -0.001511 0.007616 -0.054169 -0.000775 0.002567 0.000204 -0.000006 0.000004 -0.000009 -0.012688 -0.069471 -0.057623 -0.000315 0.003517 0.000274 -0.000001 0.000014 0.000005 -0.103225 -0.174502 -0.052305 0.000795 0.001748 -0.000834 -0.000000 0.000002 0.000009 
0.000000 1.809483 1.070689 0.266010 0.001410 0.019722 -0.000001 -0.000000 -0.000000 -0.332768 -1.279993 0.567816 -0.005381 0.051203 0.052280 -0.054468 0.305893 -0.824276 -0.000000 0.000003 0.000003 4.945118 2.468214 -0.070495 0.000006 0.000000 0.000003 -7.092768 -3.775537 -0.201591 0.000003 0.000002 0.000002 -0.583563 1.489479 -0.991529 0.219264 1.374703 1.976775 0.000015 0.000001 0.000002 0.000002 -0.000003 -0.000003 3.084202 -1.514095 0.118995 -0.000001 0.000003 0.000007 -2.678692 0.941365 0.086063 -0.000000 0.000003 0.000008 -0.096752 -0.111827 0.004233 -0.025876 -0.029685 -0.021711 0.000002 0.000001 0.000000 0.010319 -0.028569 0.021816 0.000417 0.001442 0.000114 -0.000003 -0.000006 0.000003 0.003561 0.037977 -0.008753 0.000390 0.003769 0.000505 0.000004 0.000012 0.000001 -0.101851 0.213151 -0.011331 -0.000265 0.000594 -0.000243 -0.000006 0.000005 -0.000005 -0.123544 0.085427 -0.057602 -0.046420 0.043508 0.045992 0.000000 -0.000003 -0.000000 -0.002159 0.009988 -0.058320 -0.000776 0.002569 0.000206 -0.000007 0.000005 -0.000009 -0.011910 -0.077505 -0.061925 -0.000313 0.003509 0.000276 -0.000001 0.000019 0.000005 -0.115008 -0.199711 -0.055975 0.000796 0.001744 -0.000827 -0.000001 0.000004 0.000002 
0.000000 1.809483 1.070689 0.297335 0.001414 0.019727 -0.000001 0.000000 0.000000 -0.368268 -1.432329 0.619770 -0.007902 0.075067 0.076653 -0.062345 0.301586 -0.982636 0.000001 0.000003 -0.000001 4.945114 2.468211 -0.070489 0.000001 0.000002 0.000006 -7.092770 -3.775539 -0.201589 -0.000000 0.000002 0.000004 -0.584231 1.406687 -1.071205 0.224098 1.408896 2.025756 0.000014 0.000002 0.000008 0.000002 -0.000003 -0.000001 3.084201 -1.514095 0.118995 -0.000001 0.000004 0.000008 -2.678698 0.941355 0.086056 -0.000002 0.000002 0.000010 -0.107676 -0.124339 0.007878 -0.029906 -0.034319 -0.025107 0.000004 0.000001 -0.000001 0.009470 -0.030204 0.027308 0.000416 0.001442 0.000112 -0.000001 -0.000002 0.000003 0.004254 0.044343 -0.006479 0.000390 0.003764 0.000505 0.000004 0.000012 0.000001 -0.100283 0.246048 -0.008419 -0.000264 0.000590 -0.000244 -0.000008 0.000006 -0.000006 -0.136502 0.098226 -0.061159 -0.050918 0.047699 0.050460 -0.000000 -0.000002 -0.000001 -0.002783 0.012190 -0.062203 -0.000775 0.002565 0.000203 -0.000007 0.000007 -0.000008 -0.011281 -0.085002 -0.065934 -0.000313 0.003511 0.000277 -0.000001 0.000018 0.000004 -0.124525 -0.223828 -0.059401 0.000793 0.001749 -0.000831 -0.000001 0.000003 0.000011 
